<svg xmlns="http://www.w3.org/2000/svg" viewBox="0 0 900 620" role="img" aria-label="Вінір vs коронка">
  <defs>
    <linearGradient id="bg" x1="0" y1="0" x2="1" y2="1"><stop offset="0" stop-color="#fffdfb"/><stop offset="1" stop-color="#f3edf6"/></linearGradient>
    <linearGradient id="enamel" x1="0" y1="0" x2="0" y2="1"><stop offset="0" stop-color="#fffef8"/><stop offset="0.58" stop-color="#f2eadf"/><stop offset="1" stop-color="#d8c6b8"/></linearGradient>
    <linearGradient id="dentin" x1="0" y1="0" x2="0" y2="1"><stop offset="0" stop-color="#f9d98b"/><stop offset="1" stop-color="#d7a94e"/></linearGradient>
    <linearGradient id="pulp" x1="0" y1="0" x2="0" y2="1"><stop offset="0" stop-color="#ee6b7a"/><stop offset="1" stop-color="#a82f48"/></linearGradient>
    <linearGradient id="gum" x1="0" y1="0" x2="0" y2="1"><stop offset="0" stop-color="#f3a0ad"/><stop offset="1" stop-color="#d85b73"/></linearGradient>
    <linearGradient id="bone" x1="0" y1="0" x2="0" y2="1"><stop offset="0" stop-color="#f0dbc2"/><stop offset="1" stop-color="#cfae88"/></linearGradient>
    <linearGradient id="metal" x1="0" y1="0" x2="1" y2="0"><stop offset="0" stop-color="#8f99a6"/><stop offset="0.5" stop-color="#eef2f6"/><stop offset="1" stop-color="#737d8b"/></linearGradient>
    <filter id="shadow" x="-20%" y="-20%" width="140%" height="140%"><feDropShadow dx="0" dy="16" stdDeviation="18" flood-color="#2c2034" flood-opacity=".18"/></filter>
  </defs>
  <rect width="900" height="620" rx="44" fill="url(#bg)"/>
  <circle cx="760" cy="95" r="62" fill="#74318f" opacity=".08"/>
  <circle cx="130" cy="505" r="82" fill="#8b5a2b" opacity=".07"/>
  <rect x="72" y="70" width="270" height="58" rx="29" fill="#fff" opacity=".88" stroke="#74318f" stroke-opacity=".14"/>
  <text x="105" y="108" font-family="Arial, sans-serif" font-size="25" font-weight="700" fill="#74318f">AI Council visuals</text>
  <g filter="url(#shadow)">
    <path d="M260 360c105-46 260-46 380 0v105H260z" fill="url(#gum)"/>
    <path d="M275 175c-38 0-62 28-62 68 0 32 14 58 24 88 11 35 22 65 38 80 12 11 27 6 32-10 9-29 13-62 33-62s24 33 33 62c5 16 20 21 32 10 16-15 27-45 38-80 10-30 24-56 24-88 0-40-24-68-62-68-23 0-37 11-65 11s-42-11-65-11z" fill="url(#enamel)" stroke="#6f477b" stroke-width="7"/>
    <path d="M495 150c-46 0-82 33-82 83 0 38 18 68 28 104 12 42 26 76 45 92 14 12 33 6 39-12 12-35 16-76 45-76s33 41 45 76c6 18 25 24 39 12 19-16 33-50 45-92 10-36 28-66 28-104 0-50-36-83-82-83-30 0-48 14-75 14s-45-14-75-14z" fill="#fff8e7" stroke="#b99346" stroke-width="8"/>
    <path d="M430 205c68 34 147 34 283 0" stroke="#fff" stroke-width="14" opacity=".58"/>
  </g>
  <text x="450" y="540" text-anchor="middle" font-family="Arial, sans-serif" font-size="28" font-weight="800" fill="#25172d">Вінір vs коронка</text>
</svg>