<svg xmlns="http://www.w3.org/2000/svg" viewBox="0 0 900 620" role="img" aria-label="Коли потрібен PA-знімок">
  <defs>
    <linearGradient id="bg" x1="0" y1="0" x2="1" y2="1"><stop offset="0" stop-color="#fffdfb"/><stop offset="1" stop-color="#f3edf6"/></linearGradient>
    <linearGradient id="enamel" x1="0" y1="0" x2="0" y2="1"><stop offset="0" stop-color="#fffef8"/><stop offset="0.58" stop-color="#f2eadf"/><stop offset="1" stop-color="#d8c6b8"/></linearGradient>
    <linearGradient id="dentin" x1="0" y1="0" x2="0" y2="1"><stop offset="0" stop-color="#f9d98b"/><stop offset="1" stop-color="#d7a94e"/></linearGradient>
    <linearGradient id="pulp" x1="0" y1="0" x2="0" y2="1"><stop offset="0" stop-color="#ee6b7a"/><stop offset="1" stop-color="#a82f48"/></linearGradient>
    <linearGradient id="gum" x1="0" y1="0" x2="0" y2="1"><stop offset="0" stop-color="#f3a0ad"/><stop offset="1" stop-color="#d85b73"/></linearGradient>
    <linearGradient id="bone" x1="0" y1="0" x2="0" y2="1"><stop offset="0" stop-color="#f0dbc2"/><stop offset="1" stop-color="#cfae88"/></linearGradient>
    <linearGradient id="metal" x1="0" y1="0" x2="1" y2="0"><stop offset="0" stop-color="#8f99a6"/><stop offset="0.5" stop-color="#eef2f6"/><stop offset="1" stop-color="#737d8b"/></linearGradient>
    <filter id="shadow" x="-20%" y="-20%" width="140%" height="140%"><feDropShadow dx="0" dy="16" stdDeviation="18" flood-color="#2c2034" flood-opacity=".18"/></filter>
  </defs>
  <rect width="900" height="620" rx="44" fill="url(#bg)"/>
  <circle cx="760" cy="95" r="62" fill="#74318f" opacity=".08"/>
  <circle cx="130" cy="505" r="82" fill="#8b5a2b" opacity=".07"/>
  <rect x="72" y="70" width="270" height="58" rx="29" fill="#fff" opacity=".88" stroke="#74318f" stroke-opacity=".14"/>
  <text x="105" y="108" font-family="Arial, sans-serif" font-size="25" font-weight="700" fill="#74318f">AI Council visuals</text>
  <g filter="url(#shadow)">
    <rect x="185" y="125" width="530" height="330" rx="28" fill="#142130" stroke="#5f7ea0" stroke-width="8"/>
    <path d="M270 190c70-35 140-35 205 0 70 38 130 35 188-2" fill="none" stroke="#dcecff" stroke-width="18" opacity=".72"/>
    <path d="M245 280c125-50 260-42 405 0" fill="none" stroke="#dcecff" stroke-width="13" opacity=".5"/>
    <path d="M320 230v130M382 218v150M445 224v142M510 218v150M575 232v128" stroke="#f2f7ff" stroke-width="16" stroke-linecap="round" opacity=".82"/>
    <circle cx="604" cy="345" r="45" fill="#dcecff" opacity=".18" stroke="#dcecff" stroke-width="5"/>
    <path d="M225 410h450" stroke="#6aa3d8" stroke-width="5" opacity=".5"/>
  </g>
  <text x="450" y="540" text-anchor="middle" font-family="Arial, sans-serif" font-size="28" font-weight="800" fill="#25172d">Коли потрібен PA-знімок</text>
</svg>