<svg xmlns="http://www.w3.org/2000/svg" viewBox="0 0 900 620" role="img" aria-label="Остеоінтеграція">
  <defs>
    <linearGradient id="bg" x1="0" y1="0" x2="1" y2="1"><stop offset="0" stop-color="#fffdfb"/><stop offset="1" stop-color="#f3edf6"/></linearGradient>
    <linearGradient id="enamel" x1="0" y1="0" x2="0" y2="1"><stop offset="0" stop-color="#fffef8"/><stop offset="0.58" stop-color="#f2eadf"/><stop offset="1" stop-color="#d8c6b8"/></linearGradient>
    <linearGradient id="dentin" x1="0" y1="0" x2="0" y2="1"><stop offset="0" stop-color="#f9d98b"/><stop offset="1" stop-color="#d7a94e"/></linearGradient>
    <linearGradient id="pulp" x1="0" y1="0" x2="0" y2="1"><stop offset="0" stop-color="#ee6b7a"/><stop offset="1" stop-color="#a82f48"/></linearGradient>
    <linearGradient id="gum" x1="0" y1="0" x2="0" y2="1"><stop offset="0" stop-color="#f3a0ad"/><stop offset="1" stop-color="#d85b73"/></linearGradient>
    <linearGradient id="bone" x1="0" y1="0" x2="0" y2="1"><stop offset="0" stop-color="#f0dbc2"/><stop offset="1" stop-color="#cfae88"/></linearGradient>
    <linearGradient id="metal" x1="0" y1="0" x2="1" y2="0"><stop offset="0" stop-color="#8f99a6"/><stop offset="0.5" stop-color="#eef2f6"/><stop offset="1" stop-color="#737d8b"/></linearGradient>
    <filter id="shadow" x="-20%" y="-20%" width="140%" height="140%"><feDropShadow dx="0" dy="16" stdDeviation="18" flood-color="#2c2034" flood-opacity=".18"/></filter>
  </defs>
  <rect width="900" height="620" rx="44" fill="url(#bg)"/>
  <circle cx="760" cy="95" r="62" fill="#74318f" opacity=".08"/>
  <circle cx="130" cy="505" r="82" fill="#8b5a2b" opacity=".07"/>
  <rect x="72" y="70" width="270" height="58" rx="29" fill="#fff" opacity=".88" stroke="#74318f" stroke-opacity=".14"/>
  <text x="105" y="108" font-family="Arial, sans-serif" font-size="25" font-weight="700" fill="#74318f">AI Council visuals</text>
  <g filter="url(#shadow)">
    <path d="M205 365c95-55 180-51 260-22 85 31 153 28 230-18v150H205z" fill="url(#gum)"/>
    <path d="M230 440c140-45 300-40 440-6v70H230z" fill="url(#bone)"/>
    <path d="M425 175h70l-8 56h-54z" fill="url(#metal)" stroke="#6f7782" stroke-width="5"/>
    <path d="M410 232h100l-22 210h-56z" fill="url(#metal)" stroke="#6f7782" stroke-width="6"/>
    <path d="M430 260h60M426 300h68M422 340h76M418 380h84" stroke="#626b78" stroke-width="7" opacity=".75"/>
    <path d="M382 111c42-24 116-24 156 0 20 12 24 40 6 56-43 38-137 38-181 0-18-16-1-44 19-56z" fill="url(#enamel)" stroke="#6f477b" stroke-width="7"/>
  </g>
  <text x="450" y="540" text-anchor="middle" font-family="Arial, sans-serif" font-size="28" font-weight="800" fill="#25172d">Остеоінтеграція</text>
</svg>